/* XPM */
static char *bitcoin__[] = {
/* columns rows colors chars-per-pixel */
"64 64 256 2",
"   c #001F3B",
".  c #042136",
"X  c #061A4A",
"o  c #002749",
"O  c #083B4A",
"+  c #032153",
"@  c #022D57",
"#  c #00265A",
"$  c #002B5D",
"%  c #0C2252",
"&  c #102756",
"*  c #02335D",
"=  c #023B53",
"-  c #002E61",
";  c #023364",
":  c #0A3466",
">  c #0A3B65",
",  c #05366A",
"<  c #0A3668",
"1  c #06396A",
"2  c #0C3A6A",
"3  c #063862",
"4  c #123D6D",
"5  c #183C69",
"6  c #0E3E70",
"7  c #133E70",
"8  c #183B70",
"9  c #074554",
"0  c #0A4250",
"q  c #104856",
"w  c #024B63",
"e  c #0A4E63",
"r  c #02446D",
"t  c #044C6F",
"y  c #09486B",
"u  c #174369",
"i  c #144D6E",
"p  c #184B65",
"a  c #0C5268",
"s  c #034671",
"d  c #024B72",
"f  c #0B4973",
"g  c #094671",
"h  c #144272",
"j  c #1C4575",
"k  c #194B76",
"l  c #1D4A7A",
"z  c #164D70",
"x  c #035472",
"c  c #0E5572",
"v  c #005972",
"b  c #03567A",
"n  c #0A567B",
"m  c #035D7E",
"M  c #0D5C7D",
"N  c #16577D",
"B  c #105D7F",
"V  c #175678",
"C  c #20476C",
"Z  c #224574",
"A  c #254A72",
"S  c #2A4E73",
"D  c #244779",
"F  c #244B7A",
"G  c #2A4B7B",
"H  c #2D4479",
"J  c #31477D",
"K  c #324F7E",
"L  c #275174",
"P  c #2E5373",
"I  c #23527A",
"U  c #2B547E",
"Y  c #2E5B7F",
"T  c #32567E",
"R  c #385B7F",
"E  c #315A7F",
"W  c #03617E",
"Q  c #47647E",
"!  c #035F80",
"~  c #0B5F81",
"^  c #145E81",
"/  c #1A5E81",
"(  c #164A8B",
")  c #2E4B80",
"_  c #214F80",
"`  c #344E81",
"'  c #2A5581",
"]  c #2E5A82",
"[  c #215883",
"{  c #365187",
"}  c #3B5385",
"|  c #325B85",
" . c #3A5E83",
".. c #3C548B",
"X. c #345E89",
"o. c #3B5D89",
"O. c #036282",
"+. c #0D6382",
"@. c #0C6886",
"#. c #0E6989",
"$. c #0D6788",
"%. c #136685",
"&. c #146886",
"*. c #196987",
"=. c #156788",
"-. c #1B6789",
";. c #146989",
":. c #1B6A8A",
">. c #186684",
",. c #236D8C",
"<. c #296D8E",
"1. c #276389",
"2. c #3D648D",
"3. c #37688A",
"4. c #24718D",
"5. c #29728E",
"6. c #30748F",
"7. c #2D6F90",
"8. c #246F90",
"9. c #336F93",
"0. c #3D6B92",
"q. c #257292",
"w. c #2C7492",
"e. c #2C7A95",
"r. c #337596",
"t. c #3B7697",
"y. c #347A94",
"u. c #387B95",
"i. c #3B7E9A",
"p. c #377A9A",
"a. c #425B92",
"s. c #426487",
"d. c #44668C",
"f. c #45698D",
"g. c #4B6D8D",
"h. c #526F8F",
"j. c #456B93",
"k. c #4B6E94",
"l. c #446791",
"z. c #506F90",
"x. c #4F7496",
"c. c #447B9C",
"v. c #487699",
"b. c #597794",
"n. c #54759B",
"m. c #567A9D",
"M. c #5A7A9E",
"N. c #577297",
"B. c #637F9A",
"V. c #607B96",
"C. c #6278A1",
"Z. c #687FAC",
"A. c #3C8198",
"S. c #3E8097",
"D. c #43839B",
"F. c #48879D",
"G. c #49889D",
"H. c #5F809E",
"J. c #67809B",
"K. c #6E849F",
"L. c #4A84A3",
"P. c #5C83A4",
"I. c #548DA2",
"U. c #5282A1",
"Y. c #5591A5",
"T. c #5D93A6",
"R. c #5592AA",
"E. c #6284A4",
"W. c #6886A9",
"Q. c #6E8CAC",
"!. c #6689A6",
"~. c #7183A7",
"^. c #768DA6",
"/. c #6295A9",
"(. c #6C9BAD",
"). c #6598AA",
"_. c #7692AF",
"`. c #7891A8",
"'. c #6797B2",
"]. c #7491B2",
"[. c #7B94B3",
"{. c #729FB0",
"}. c #7D99B6",
"|. c #71A0AF",
" X c #6CA0B9",
".X c #7BA5B5",
"XX c #76A0B0",
"oX c #7DAAC0",
"OX c #8699AD",
"+X c #829BB5",
"@X c #889FB6",
"#X c #8193B9",
"$X c #829EBB",
"%X c #919FBD",
"&X c #8AA2BD",
"*X c #82ABB9",
"=X c #89AEBB",
"-X c #84A7B9",
";X c #92A3B4",
":X c #98A7B8",
">X c #8DB1BE",
",X c #91B2BE",
"<X c #A0AEBD",
"1X c #A3B0BE",
"2X c #84A7C0",
"3X c #95ABC4",
"4X c #9BADC8",
"5X c #9CADC5",
"6X c #8CB3C6",
"7X c #95B7C1",
"8X c #94B6CC",
"9X c #9DB2C8",
"0X c #9BBAC9",
"qX c #9ABED0",
"wX c #A2BDC7",
"eX c #A2B4CB",
"rX c #A5B9CE",
"tX c #A5B1C0",
"yX c #B2BBC6",
"uX c #A7BCD2",
"iX c #A9BCD2",
"pX c #B2BFD4",
"aX c #ACC4CB",
"sX c #B1C6CE",
"dX c #ADC2D4",
"fX c #A0C1D3",
"gX c #B4C4D6",
"hX c #BCCDD2",
"jX c #B4CCDC",
"kX c #BCCBDC",
"lX c #BBC5D7",
"zX c #B9CEE0",
"xX c #C0CFDF",
"cX c #D2DBDE",
"vX c #C9D6D9",
"bX c #C4CFE0",
"nX c #C5D3E1",
"mX c #CBD5E4",
"MX c #CFDAE6",
"NX c #D2DDEA",
"BX c #D2DDE7",
"VX c #D6E2ED",
"CX c #DBE3ED",
"ZX c #DDE8F1",
"AX c #E2E9EF",
"SX c #E1E6F1",
"DX c #E4EBF3",
"FX c #EAEEF5",
"GX c #ECEFF8",
"HX c #ECF1F6",
"JX c #EFF1F9",
"KX c #F5F5FC",
"LX c #F8F7FD",
"PX c #F6F8FD",
"IX c #FDFDFF",
"UX c None",
/* pixels */
"UXUXUXUXUXUXUXUXUXUXUXUXUXUXUXUXUXUXUXUXUXUXUXUXUXUXUXUXUXUXUXUXUXUXUXUXUXUXUXUXUXUXUXUXUXUXUXUXUXUXUXUXUXUXUXUXUXUXUXUXUXUXUXUX",
"UXUXUXUXUXUXUXUXUXUXUXUXUXUXUXUXUXUXUXUXUXUXUXUXUXUXUXUXUXUXUXUXUXUXUXUXUXUXUXUXUXUXUXUXUXUXUXUXUXUXUXUXUXUXUXUXUXUXUXUXUXUXUXUX",
"UXUXUXUXUXUXUXUXUXUXUXUXUXUXUXUXUXUXUXUXUXUXUXUXUXUXUXUXUXUXUXUXUXUXUXUXUXUXUXUXUXUXUXUXUXUXUXUXUXUXUXUXUXUXUXUXUXUXUXUXUXUXUXUX",
"UXUXUXUXUXUXUXUXUXUXUXUXUXUXUXUXUXUXUXUXUXUXUXUXUXUXUXUXUXUXUXUXUXUXUXUXUXUXUXUXUXUXUXUXUXUXUXUXUXUXUXUXUXUXUXUXUXUXUXUXUXUXUXUX",
"UXUXUXUXUXUXUXUXUXUXUXUXUXUXUXUXUXUXUXUXUXUXUXUXUXUXUXUXUXUXUXUXUXUXUXUXUXUXUXUXUXUXUXUXUXUXUXUXUXUXUXUXUXUXUXUXUXUXUXUXUXUXUXUX",
"UXUXUXUXUXUXUXUXUXUXUXUXUXUXUXUXUXUXUXUXUXUXUXUXUXUXUXUXUXUXUXUXUXUXUXUXUXUXUXUXUXUXUXUXUXUXUXUXUXUXUXUXUXUXUXUXUXUXUXUXUXUXUXUX",
"UXUXUXUXUXUXUXUXUXUXUXUXUXUXUXUXUXUXUXUXUXUXUXUXUXUXUXUXUXUXUXUXUXUXUXUXUXUXUXUXUXUXUXUXUXUXUXUXUXUXUXUXUXUXUXUXUXUXUXUXUXUXUXUX",
"UXUXUXUXUXUXUXUXUXUXUXUXUXUXUXUXUXUXUXUXUXUXUXUXUXUXUXUXUXUXUXUXUXUXUXUXUXUXUXUXUXUXUXUXUXUXUXUXUXUXUXUXUXUXUXUXUXUXUXUXUXUXUXUX",
"UXUXUXUXUXUXUXUXUXUXUXUXUXUXUXUXUXUXUXUXUXUXUXUXUXUXUXUXO i w w c e i = UXUXUXUXUXUXUXUXUXUXUXUXUXUXUXUXUXUXUXUXUXUXUXUXUXUXUXUX",
"UXUXUXUXUXUXUXUXUXUXUXUXUXUXUXUXUXUXUXUXUXUXUXUXq c &.#.#.@.I.>Xi.+.+.O.@.W B 9 UXUXUXUXUXUXUXUXUXUXUXUXUXUXUXUXUXUXUXUXUXUXUXUX",
"UXUXUXUXUXUXUXUXUXUXUXUXUXUXUXUXUXUXUXUXUXUX/ $.#.+.~ %.&.+.D.BX&.+.u.u.B >.W W O.e.UXUXUXUXUXUXUXUXUXUXUXUXUXUXUXUXUXUXUXUXUXUX",
"UXUXUXUXUXUXUXUXUXUXUXUXUXUXUXUXUXUXUXUXa O.e.(.e.L.I.{.=.+.:.hX%.O.)..Xu.,X,.G.*.m O.M UXUXUXUXUXUXUXUXUXUXUXUXUXUXUXUXUXUXUXUX",
"UXUXUXUXUXUXUXUXUXUXUXUXUXUXUXUXUXUXp +.:.7X.XD.4./.aX.X,.+.r.vXI.(.(.=X.X.XsXG.XX&.B W O.w UXUXUXUXUXUXUXUXUXUXUXUXUXUXUXUXUXUX",
"UXUXUXUXUXUXUXUXUXUXUXUXUXUXUXUXUX/ ;.%.4.-XcX(.5.A.{.*X/.+.q.w.y.w.%.i./.D.0XG.4.aX,XF.O.O.b UXUXUXUXUXUXUXUXUXUXUXUXUXUXUXUXUX",
"UXUXUXUXUXUXUXUXUXUXUXUXUXUXUXUX=.;.=.;.%.+.gX*X/./.y.%.%.=.$.$.+.+.+.+.W m &.G.4.hXT.=XW m O.W UXUXUXUXUXUXUXUXUXUXUXUXUXUXUXUX",
"UXUXUXUXUXUXUXUXUXUXUXUXUXUXUX=.;.=.*.=.*.+./.=Xw.%.%.*.:.=.=.-.%.q.-.%.%.%.%.m W S./.>.m O.m m W UXUXUXUXUXUXUXUXUXUXUXUXUXUXUX",
"UXUXUXUXUXUXUXUXUXUXUXUXUXUX=.&.=.;.;.:.:.:.8.=.>.r.r.*.:.:.:.-.~ oX2.~ &.&.%.+.%.m W +.m ~ m W ! W UXUXUXUXUXUXUXUXUXUXUXUXUXUX",
"UXUXUXUXUXUXUXUXUXUXUXUXUX>.;.>.*.*.*.:.:.,.,.,.,.i.uX1.,.,.:.:.-.ZXk.2 %.%.+.%.W +.+.+.O.m O.m W O.m UXUXUXUXUXUXUXUXUXUXUXUXUX",
"UXUXUXUXUXUXUXUXUXUXUXUXp ;.=.;.*.:.:.,.,.,.,.7.<.8.CX+X^ A.c.^ R.IXM., h ^ ;.m w.r.M +.~ W ~ m m m O.t UXUXUXUXUXUXUXUXUXUXUXUX",
"UXUXUXUXUXUXUXUXUXUXUXUX%.=.;.=.*.:.:.,.,.<.7.7.7.<.nXPX..U.4Xf fXIXQ.2 W.h b e.kXG r +.+.m W ! m W m O.UXUXUXUXUXUXUXUXUXUXUXUX",
"UXUXUXUXUXUXUXUXUXUXUXa ;.=.=.;.:.:.,.w.,.<.9.c.c.1.uXIXxXN.FXa.SXIX[._.eX# 2.DXrX; : f ~ ~ m m m m m W m UXUXUXUXUXUXUXUXUXUXUX",
"UXUXUXUXUXUXUXUXUXUXUX;.%.=.*.:.:.,.-.'.8Xt.9.c.jXc.2XIXLXnXPXkXIXIXkXJXW.2.DXIXj.; 4 : g ! ! ! m m m m O.* UXUXUXUXUXUXUXUXUXUX",
"UXUXUXUXUXUXUXUXUXUXV #.%.;.*.:.:.<.,.<.jXFX-Xt.0XZX8XIXIXLXLXIXPXIXIXLXrXDXIXnX- _ Z > < g O.! W m m m W v UXUXUXUXUXUXUXUXUXUX",
"UXUXUXUXUXUXUXUXUXUX;.%.=.;.*.*.:.,.,.<.c.DXIXNX8XPXLXIXLXLXIXLXIXIXLXIXIXIXPXQ.[.4Xu : - - r ~ W m m m W O.UXUXUXUXUXUXUXUXUXUX",
"UXUXUXUXUXUXUXUXUX0 ;.%.=.=.*.:.,.<.<.<.<.'.LXIXIXPXIXIXLXIXIXIXIXIXIXLXIXPXPXDXDXj $ 4 | Q.2.r m W m m m ! w UXUXUXUXUXUXUXUXUX",
"UXUXUXUXUXUXUXUXUXc #.%.%.;.*.*.,.,.w.c.!.9.0XIXLXIXLXIXLXmX%X~.C.[.pXLXIXLXIXIX[.n.9XCXLX}.2 : s m W m m W ! UXUXUXUXUXUXUXUXUX",
"UXUXUXUXUXUXUXUXUX;.%.%.%.=.*.*.=.,.<.t.iXCXjXJXIXIXIXKX#X} J H Z 8 4 l.mXIXLXLXKXIXIXPXm.$ ; ; ; r m m W m W UXUXUXUXUXUXUXUXUX",
"UXUXUXUXUXUXUXUXUX#.+.%.=.=.;.8.i.r.r.r.t.rXIXIXIXPXHXZ.....} ` H D Z 2 F nXIXPXLXIXMX| # , 1 ; ; ; r m m m O.= UXUXUXUXUXUXUXUX",
"UXUXUXUXUXUXUXUXO ;.%.%.%.;.=.q.}.ZXKXFXZXNXIXLXLXIX#X..a...} ` D D j j 2 o.GXLXIXKX9X[.].l ; 1 , ; ; s m m O.w UXUXUXUXUXUXUXUX",
"UXUXUXUXUXUXUXUXi @.%.%.%.=.;.=.^ l.eXPXIXIXLXLXIXmX........{ ) D D Z j j , 3XIXPXIXHX3X| 2 2 ; ; ; ; ; s m W d UXUXUXUXUXUXUXUX",
"UXUXUXUXUXUXUXUXa +.;.%.%.;.=.*.:.^ 7 } 5XGXLXIXIX:X) } ..` } K D D D j h : x.LXIXLX$Xl ; - - ; ; ; ; ; ; r m v UXUXUXUXUXUXUXUX",
"UXUXUXUXUXUXUXUXi @.+.+.%.%.=.;.=.:.r.C.+XCXIXLXIX~.H ` ) ) ` G G G A C Z 4 ' KXLXLXIXKXVXuX].j.j ; ; ; ; - s m UXUXUXUXUXUXUXUX",
"UXUXUXUXUXUXUXUXa &.+.&.%.@.&.&.;.;.P.9XmXLXLXIXLXC.Z H G G D G G A A A A C R KXLXIXLXIXIXSXlXQ.l 2 ; ; ; - ; r UXUXUXUXUXUXUXUX",
"UXUXUXUXUXUXUXUXe @.+.B %.&.%.&.-.%.! k +XFXIXIXIX[.8 D D Z D G A U S S A u g.PXIXLXCXE.l 2 - $ ; , 2 ; ; ; ; ; UXUXUXUXUXUXUXUX",
"UXUXUXUXUXUXUXUXi #.%.%.+.%.%.%.~ 8..XHXIXIXLXLXIXgX7 D j Z Z A A P P P L > ;XPXKXLXLXxXM.2 ; ; ; ; , 3 ; ; ; @ UXUXUXUXUXUXUXUX",
"UXUXUXUXUXUXUXUX= #.W %.+.+.%.:. XVXIXKXKXGXJXIXLXLXj.2 j j j Z A S P T I Y DXLXIXBXk.x.n.k ; ; ; ; , 2 ; ; , o UXUXUXUXUXUXUXUX",
"UXUXUXUXUXUXUXUXUX@.+.W %.%.W :.2.o.| { F n.HXLXIXIXmXF 2 j h Z A A L I ( dXIXIXLXIXgXy # ; ; ; ; ; ; , ; ; ; + UXUXUXUXUXUXUXUX",
"UXUXUXUXUXUXUXUXUX+.B %.W &.>.%.! 1 2 ; x.FXCXPXLXLXIXnXo., : 4 C u > U dXIXIXLXLXIXIXBXU $ ; ; ; ; ; , ; ; , UXUXUXUXUXUXUXUXUX",
"UXUXUXUXUXUXUXUXUXB @.W W >.+.%.%.~ 2 ' }.2.}.IXLXIXPXIXKX3Xx.'  .g.&XAXIXIXLXIXVX-XMXIXJXk.- ; ; ; 3 - 2 ; 3 UXUXUXUXUXUXUXUXUX",
"UXUXUXUXUXUXUXUXUX9 @.B B %.W +.+.+.^ h $ | JXIXIXKXIXLXLXIXLXPXKXPXIXLXIXIXDXdXKXn.; Y Q.9XX.; ; ; ; ; ; ; @ UXUXUXUXUXUXUXUXUX",
"UXUXUXUXUXUXUXUXUXUX@.+.W +.%.B %.+.&.n h mXIXDXW.mXIXPXIXPXIXIXLXIXLXIXIXLXIX2.2.rXI * @ - 2 ; ; ; ; ; , ; X UXUXUXUXUXUXUXUXUX",
"UXUXUXUXUXUXUXUXUXUXv +.%.W W %.+.+.W W qXPX&Xu ] JXkXIXPXIXPXLXIXPXPXIXDXIXIXiX# 3 V > 3 ; ; ; ; ; - ; 2 ; UXUXUXUXUXUXUXUXUXUX",
"UXUXUXUXUXUXUXUXUXUXUXO.M W %.B +.+.m L.4X' ; $ %XW.!.IXIXeXFXKXKXIX9XkXgX!.IXKXl 3 3 > ; ; ; - ; ; ; ; 1 . UXUXUXUXUXUXUXUXUXUX",
"UXUXUXUXUXUXUXUXUXUXUXb O.m m W M +.+.1.; ; 2 u 2.# 3XIXmXh DX].HXIX_.Y kX3 E.IX.X* 3 ; ; ; ; ; - ; ; , 3 UXUXUXUXUXUXUXUXUXUXUX",
"UXUXUXUXUXUXUXUXUXUXUXUXO.! W ~ W +.m W f 1 2 2 ; - kXPXX., uX7 gXIXP.+ m.I @ E.mX2 ; ; ; ; ; ; ; ; - 1 % UXUXUXUXUXUXUXUXUXUXUX",
"UXUXUXUXUXUXUXUXUXUXUXUXy O.m W m m O.~ ~ s , ; , 1 CX}.- 7 k.- P.IXj.$ ; 1 ; $ j.X.$ ; ; ; ; ; ; ; ; : UXUXUXUXUXUXUXUXUXUXUXUX",
"UXUXUXUXUXUXUXUXUXUXUXUXUXm O.m m O.m m %.O.s , ; F uX2 ; 2 1 - k DX| ; ; ; ; ; - ; ; 3 ; ; ; ; ; ; , UXUXUXUXUXUXUXUXUXUXUXUXUX",
"UXUXUXUXUXUXUXUXUXUXUXUXUXUXm ~ m m m m D.aX*.s - F ' - ; , 2 1 $ 3XU - ; ; ; ; - ; - 2 ; - ; ; ; , UXUXUXUXUXUXUXUXUXUXUXUXUXUX",
"UXUXUXUXUXUXUXUXUXUXUXUXUXUXUXW m m m m aX{.+.O.N $ - ; < ; > 2 , ' u ; ; ; ; $ s.> T ^.d.; - , 1 . UXUXUXUXUXUXUXUXUXUXUXUXUXUX",
"UXUXUXUXUXUXUXUXUXUXUXUXUXUXUXUXW m %.,XaXx v 5.T.v.T - ; ; ; ; , - ; ; ; $ 2 A f.J.V.%XyXF - , . UXUXUXUXUXUXUXUXUXUXUXUXUXUXUX",
"UXUXUXUXUXUXUXUXUXUXUXUXUXUXUXUXUXm O.T.{.6.>.=Xu.*X`.; $ $ * # $ ; h ; 2 j s.yX5 1Xh.V. .; , UXUXUXUXUXUXUXUXUXUXUXUXUXUXUXUXUX",
"UXUXUXUXUXUXUXUXUXUXUXUXUXUXUXUXUXUXt m +././.sX:.0XY.;XT B.3.2.b.J.1XT K.:Xh.:Xs.J.^.4 ; : UXUXUXUXUXUXUXUXUXUXUXUXUXUXUXUXUXUX",
"UXUXUXUXUXUXUXUXUXUXUXUXUXUXUXUXUXUXUXUX+.v &.D.A.,XA.aXhX`.K.^.+XR :X> :X:X1Xg.B.u - > & UXUXUXUXUXUXUXUXUXUXUXUXUXUXUXUXUXUXUX",
"UXUXUXUXUXUXUXUXUXUXUXUXUXUXUXUXUXUXUXUXUXU W m W 4.S.%.T.+XR K.OX# @Xb.h.d.j ; $ $ Q UXUXUXUXUXUXUXUXUXUXUXUXUXUXUXUXUXUXUXUXUX",
"UXUXUXUXUXUXUXUXUXUXUXUXUXUXUXUXUXUXUXUXUXUXUXUXw m m O.m @.b h j ; - , $ - * # X UXUXUXUXUXUXUXUXUXUXUXUXUXUXUXUXUXUXUXUXUXUXUX",
"UXUXUXUXUXUXUXUXUXUXUXUXUXUXUXUXUXUXUXUXUXUXUXUXUXUXUX= 9 x v r * * # o + UXUXUXUXUXUXUXUXUXUXUXUXUXUXUXUXUXUXUXUXUXUXUXUXUXUXUX",
"UXUXUXUXUXUXUXUXUXUXUXUXUXUXUXUXUXUXUXUXUXUXUXUXUXUXUXUXUXUXUXUXUXUXUXUXUXUXUXUXUXUXUXUXUXUXUXUXUXUXUXUXUXUXUXUXUXUXUXUXUXUXUXUX",
"UXUXUXUXUXUXUXUXUXUXUXUXUXUXUXUXUXUXUXUXUXUXUXUXUXUXUXUXUXUXUXUXUXUXUXUXUXUXUXUXUXUXUXUXUXUXUXUXUXUXUXUXUXUXUXUXUXUXUXUXUXUXUXUX",
"UXUXUXUXUXUXUXUXUXUXUXUXUXUXUXUXUXUXUXUXUXUXUXUXUXUXUXUXUXUXUXUXUXUXUXUXUXUXUXUXUXUXUXUXUXUXUXUXUXUXUXUXUXUXUXUXUXUXUXUXUXUXUXUX",
"UXUXUXUXUXUXUXUXUXUXUXUXUXUXUXUXUXUXUXUXUXUXUXUXUXUXUXUXUXUXUXUXUXUXUXUXUXUXUXUXUXUXUXUXUXUXUXUXUXUXUXUXUXUXUXUXUXUXUXUXUXUXUXUX",
"UXUXUXUXUXUXUXUXUXUXUXUXUXUXUXUXUXUXUXUXUXUXUXUXUXUXUXUXUXUXUXUXUXUXUXUXUXUXUXUXUXUXUXUXUXUXUXUXUXUXUXUXUXUXUXUXUXUXUXUXUXUXUXUX",
"UXUXUXUXUXUXUXUXUXUXUXUXUXUXUXUXUXUXUXUXUXUXUXUXUXUXUXUXUXUXUXUXUXUXUXUXUXUXUXUXUXUXUXUXUXUXUXUXUXUXUXUXUXUXUXUXUXUXUXUXUXUXUXUX",
"UXUXUXUXUXUXUXUXUXUXUXUXUXUXUXUXUXUXUXUXUXUXUXUXUXUXUXUXUXUXUXUXUXUXUXUXUXUXUXUXUXUXUXUXUXUXUXUXUXUXUXUXUXUXUXUXUXUXUXUXUXUXUXUX",
"UXUXUXUXUXUXUXUXUXUXUXUXUXUXUXUXUXUXUXUXUXUXUXUXUXUXUXUXUXUXUXUXUXUXUXUXUXUXUXUXUXUXUXUXUXUXUXUXUXUXUXUXUXUXUXUXUXUXUXUXUXUXUXUX"
};
