/* XPM */
static char *bitcoin__[] = {
/* columns rows colors chars-per-pixel */
"32 32 171 2",
"   c #031E37",
".  c #00143A",
"X  c #031D3E",
"o  c #02254E",
"O  c #002B5D",
"+  c #063F57",
"@  c #0E3C52",
"#  c #04315E",
"$  c #033F5A",
"%  c #123F54",
"&  c #002D61",
"*  c #023364",
"=  c #093665",
"-  c #013867",
";  c #033669",
":  c #033969",
">  c #0C3C6B",
",  c #143E65",
"<  c #103E6E",
"1  c #153E70",
"2  c #1B3D72",
"3  c #04435E",
"4  c #0B435E",
"5  c #024662",
"6  c #00416C",
"7  c #084F6B",
"8  c #104560",
"9  c #16436F",
"0  c #0E536E",
"q  c #0E4673",
"w  c #0C4E73",
"e  c #144473",
"r  c #1B4575",
"t  c #1C4977",
"y  c #025372",
"u  c #0E5774",
"i  c #0F5875",
"p  c #02567A",
"a  c #085579",
"s  c #035C7D",
"d  c #0A5D7E",
"f  c #1A507B",
"g  c #1B5F7A",
"h  c #26466E",
"j  c #224775",
"k  c #234D77",
"l  c #294D74",
"z  c #25477A",
"x  c #2D457B",
"c  c #244C7A",
"v  c #314F7F",
"b  c #295274",
"n  c #27527F",
"m  c #28537E",
"M  c #30527B",
"N  c #03607F",
"B  c #09617F",
"V  c #14607F",
"C  c #005F80",
"Z  c #0B5F80",
"A  c #344F83",
"S  c #374F88",
"D  c #2D5480",
"F  c #2C5A82",
"G  c #345B83",
"H  c #395D82",
"J  c #335C88",
"K  c #036282",
"L  c #0D6483",
"P  c #0D6887",
"I  c #126585",
"U  c #186787",
"Y  c #106887",
"T  c #1A6A87",
"R  c #146A8A",
"E  c #1B6B8A",
"W  c #2C6583",
"Q  c #206B86",
"!  c #236C8D",
"~  c #296D8F",
"^  c #366184",
"/  c #34638B",
"(  c #3D628B",
")  c #26718F",
"_  c #3B7289",
"`  c #2D6E90",
"'  c #2E7592",
"]  c #277893",
"[  c #297996",
"{  c #357595",
"}  c #397296",
"|  c #337D97",
" . c #367D98",
".. c #397C9A",
"X. c #47678A",
"o. c #466A8D",
"O. c #466A91",
"+. c #496C93",
"@. c #526F96",
"#. c #546A9B",
"$. c #4C7196",
"%. c #49779A",
"&. c #427E9C",
"*. c #497C9D",
"=. c #527394",
"-. c #5B7897",
";. c #5B7A9C",
":. c #36839C",
">. c #3D859D",
",. c #43849D",
"<. c #48869E",
"1. c #4D899F",
"2. c #5F849E",
"3. c #66819D",
"4. c #68839D",
"5. c #4B8BA2",
"6. c #5387A5",
"7. c #528EA2",
"8. c #5B8AA8",
"9. c #5A93A6",
"0. c #5592AB",
"q. c #5B93AD",
"w. c #5A98AA",
"e. c #6B86A3",
"r. c #658EAC",
"t. c #6F8BAA",
"y. c #728AA3",
"u. c #6095A7",
"i. c #6F9FAF",
"p. c #7591B0",
"a. c #7994B2",
"s. c #7A9CB2",
"d. c #73A2B1",
"f. c #7BA7B7",
"g. c #809BB6",
"h. c #849CB9",
"j. c #84A0B9",
"k. c #8DA3BB",
"l. c #82AAB9",
"z. c #97AABF",
"x. c #90A7C0",
"c. c #95ACC3",
"v. c #9BAFC6",
"b. c #9DB4D0",
"n. c #A2B3C8",
"m. c #ABBDCE",
"M. c #ACBED1",
"N. c #B2BED2",
"B. c #ADC4D5",
"V. c #B3C3D6",
"C. c #BBC3D7",
"Z. c #B8C7D8",
"A. c #B4CCDB",
"S. c #BBC8D9",
"D. c #BDD2DE",
"F. c #BACFE0",
"G. c #C1CEDE",
"H. c #C5D1DE",
"J. c #C8D0DF",
"K. c #C7D2E1",
"L. c #CFD6E4",
"P. c #C9D8E5",
"I. c #D5DDE7",
"U. c #D7DEE9",
"Y. c #DAE1EC",
"T. c #E5EBF3",
"R. c #EAEDF5",
"E. c #EEF0F7",
"W. c #F2F5FA",
"Q. c #FFFFFF",
"!. c None",
/* pixels */
"!.!.!.!.!.!.!.!.!.!.!.!.!.!.!.!.!.!.!.!.!.!.!.!.!.!.!.!.!.!.!.!.",
"!.!.!.!.!.!.!.!.!.!.!.!.!.!.!.!.!.!.!.!.!.!.!.!.!.!.!.!.!.!.!.!.",
"!.!.!.!.!.!.!.!.!.!.!.!.!.!.!.!.!.!.!.!.!.!.!.!.!.!.!.!.!.!.!.!.",
"!.!.!.!.!.!.!.!.!.!.!.!.!.!.!.!.!.!.!.!.!.!.!.!.!.!.!.!.!.!.!.!.",
"!.!.!.!.!.!.!.!.!.!.!.!.!.4 0 _ g 7 3 !.!.!.!.!.!.!.!.!.!.!.!.!.",
"!.!.!.!.!.!.!.!.!.!.8 _ [ >.L f.| 5.,.] E $ !.!.!.!.!.!.!.!.!.!.",
"!.!.!.!.!.!.!.!.!.d 0.l.5.l.) ,.,.7.i.d.7.>.d !.!.!.!.!.!.!.!.!.",
"!.!.!.!.!.!.!.!.R R E l...E E I I L L U 5.u.K K !.!.!.!.!.!.!.!.",
"!.!.!.!.!.!.!.R E E E E { ..E L q./ Z K s L C C K !.!.!.!.!.!.!.",
"!.!.!.!.!.!.V R E E ! ~ { V.%.} A.@.f E *.a L C N s !.!.!.!.!.!.",
"!.!.!.!.!.@ R E U | 6.} 6.P.J.V.R.V.;.V.+.= a K s K 3 !.!.!.!.!.",
"!.!.!.!.!.I R E ! ~ B.B.F.T.Q.Q.Q.Q.T.U.O.= - d N N s !.!.!.!.!.",
"!.!.!.!.!.R I E E ~ 8.R.Q.Q.E.C.N.T.Q.W.h.e.a.e p K K !.!.!.!.!.",
"!.!.!.!.8 Y I E ..&.c.T.Q.L.#.x 2 c m.Q.W.K.D * : p K 5 !.!.!.!.",
"!.!.!.!.u R I R r.G.R.Q.E.#.S A z 1 r U.Q.x.r O * : p y !.!.!.!.",
"!.!.!.!.u Y I R I +.J.Q.C.x A A x z = c.Q.Z.t.( : * - y !.!.!.!.",
"!.!.!.!.u P I I L *.L.Q.N.2 x z l l , z.Q.T.k.O.> = * * !.!.!.!.",
"!.!.!.!.0 P I I 0.S.T.Q.T.n < z l b f I.W.j.t O * - ; O !.!.!.!.",
"!.!.!.!.4 P I I J D p.T.Q.m.r = , k b.Q.Q.m.9 * * - - o !.!.!.!.",
"!.!.!.!.!.P B L Z q o.T.Q.Q.U.c.z.I.Q.T.m.k.g.> & * ; X !.!.!.!.",
"!.!.!.!.!.d L I L d c.n.v.W.Q.Q.Q.Q.Q.S.F : - = * * * !.!.!.!.!.",
"!.!.!.!.!.4 K K K ~ ( : ( J.Z.G.W.c.s.H.^ # * * * : o !.!.!.!.!.",
"!.!.!.!.!.!.p K C B 6 ; < M.D J S.( > k $.& * * * ; !.!.!.!.!.!.",
"!.!.!.!.!.!.!.K K p >.w e F * & ;.m & & * * * * - !.!.!.!.!.!.!.",
"!.!.!.!.!.!.!.!.K  .i.Y W = & * : * O < H 4.o.*   !.!.!.!.!.!.!.",
"!.!.!.!.!.!.!.!.!.Q  .9.d.2.M l H H X.y.;.=.e !.!.!.!.!.!.!.!.!.",
"!.!.!.!.!.!.!.!.!.!.W T :.w.s.;.-.-.e.o.j h !.!.!.!.!.!.!.!.!.!.",
"!.!.!.!.!.!.!.!.!.!.!.!.!.3 y u = # o . !.!.!.!.!.!.!.!.!.!.!.!.",
"!.!.!.!.!.!.!.!.!.!.!.!.!.!.!.!.!.!.!.!.!.!.!.!.!.!.!.!.!.!.!.!.",
"!.!.!.!.!.!.!.!.!.!.!.!.!.!.!.!.!.!.!.!.!.!.!.!.!.!.!.!.!.!.!.!.",
"!.!.!.!.!.!.!.!.!.!.!.!.!.!.!.!.!.!.!.!.!.!.!.!.!.!.!.!.!.!.!.!.",
"!.!.!.!.!.!.!.!.!.!.!.!.!.!.!.!.!.!.!.!.!.!.!.!.!.!.!.!.!.!.!.!."
};
