/* XPM */
static char *bitcoin__[] = {
/* columns rows colors chars-per-pixel */
"48 48 245 2",
"   c #001C3C",
".  c #00213B",
"X  c #001D40",
"o  c #022543",
"O  c #0E2745",
"+  c #002843",
"@  c #002649",
"#  c #012D4D",
"$  c #092F4F",
"%  c #043646",
"&  c #02324C",
"*  c #09304D",
"=  c #033B48",
"-  c #133D4E",
";  c #012E50",
":  c #033152",
">  c #0B3655",
",  c #013D51",
"<  c #0C3C55",
"1  c #0A3759",
"2  c #033B59",
"3  c #0B3A5A",
"4  c #193E52",
"5  c #163B5B",
"6  c #1B3D5E",
"7  c #1D3E60",
"8  c #034656",
"9  c #0E4754",
"0  c #034956",
"q  c #0F4855",
"w  c #01435D",
"e  c #0F405D",
"r  c #034C5C",
"t  c #124554",
"y  c #194152",
"u  c #124954",
"i  c #16415E",
"p  c #1C415F",
"a  c #00505E",
"s  c #34535F",
"d  c #0B4862",
"f  c #164162",
"g  c #1D4564",
"h  c #114D66",
"j  c #1D4965",
"k  c #025465",
"l  c #075864",
"z  c #005668",
"x  c #0C576A",
"c  c #035D6D",
"v  c #085D6F",
"b  c #145463",
"n  c #1A556B",
"m  c #115E6B",
"M  c #1D5A69",
"N  c #055F70",
"B  c #0C5E70",
"V  c #145F71",
"C  c #214562",
"Z  c #224863",
"A  c #234C69",
"S  c #2C4D6B",
"D  c #314D64",
"F  c #324C6D",
"G  c #23536B",
"H  c #2B516D",
"J  c #365264",
"K  c #3B5663",
"L  c #37516F",
"P  c #3C536B",
"I  c #3D5D6C",
"U  c #255B72",
"Y  c #2C5972",
"T  c #335573",
"R  c #3B5172",
"E  c #375A74",
"W  c #3B5D75",
"Q  c #375E7B",
"!  c #3E5E78",
"~  c #01606F",
"^  c #17616E",
"/  c #046172",
"(  c #0B6272",
")  c #0D6778",
"_  c #146473",
"`  c #196676",
"'  c #126877",
"]  c #186877",
"[  c #136778",
"{  c #1C6778",
"}  c #156979",
"|  c #1C6A7A",
" . c #1F707F",
".. c #2B6475",
"X. c #26667A",
"o. c #236C7D",
"O. c #296F7F",
"+. c #3F6177",
"@. c #376078",
"#. c #3B667C",
"$. c #326C7F",
"%. c #22707F",
"&. c #41576A",
"*. c #42586D",
"=. c #415275",
"-. c #425874",
";. c #405D7A",
":. c #4F5C7B",
">. c #545C7E",
",. c #496265",
"<. c #436176",
"1. c #4B6571",
"2. c #42647C",
"3. c #506E77",
"4. c #1F6F80",
"5. c #256E80",
"6. c #2C6E81",
"7. c #3C6380",
"8. c #366E82",
"9. c #227180",
"0. c #2C7282",
"q. c #2B7885",
"w. c #337384",
"e. c #3C7586",
"r. c #347986",
"t. c #377388",
"y. c #3E7688",
"u. c #377A89",
"i. c #3B7C8B",
"p. c #4F5A81",
"a. c #605F85",
"s. c #436682",
"d. c #496580",
"f. c #4E6A82",
"g. c #516D81",
"h. c #5E668A",
"j. c #516F8A",
"k. c #596D8A",
"l. c #427185",
"z. c #4C7384",
"x. c #407688",
"c. c #497388",
"v. c #437B8C",
"b. c #4A7A8D",
"n. c #557184",
"m. c #53758A",
"M. c #5C758B",
"N. c #53798D",
"B. c #557D91",
"V. c #5B7A94",
"C. c #666786",
"Z. c #62658E",
"A. c #6C6F97",
"S. c #696D98",
"D. c #48828F",
"F. c #458592",
"G. c #4C8493",
"H. c #4E8B96",
"J. c #5D8397",
"K. c #538A95",
"L. c #588D97",
"P. c #5A8799",
"I. c #578B9A",
"U. c #598F9A",
"Y. c #5E929C",
"T. c #648395",
"R. c #6C8494",
"E. c #66869A",
"W. c #6A849B",
"Q. c #69889A",
"!. c #718495",
"~. c #748897",
"^. c #748A9A",
"/. c #64959F",
"(. c #72919E",
"). c #7C909E",
"_. c #5A81AA",
"`. c #748DA3",
"'. c #699AAB",
"]. c #7690A2",
"[. c #7D92A4",
"{. c #709DA5",
"}. c #7B94A9",
"|. c #7798A9",
" X c #7F99AC",
".X c #72A0A7",
"XX c #76A0A8",
"oX c #7AA4AB",
"OX c #7FA8AE",
"+X c #75A4B0",
"@X c #8686A5",
"#X c #8797A3",
"$X c #8196AA",
"%X c #839AAC",
"&X c #8A9CAB",
"*X c #8A9FB3",
"=X c #919CB2",
"-X c #95A3AE",
";X c #8BA5B3",
":X c #84AAB1",
">X c #8CAFB4",
",X c #8BA9BB",
"<X c #90A3B6",
"1X c #9CA5B7",
"2X c #93A9B7",
"3X c #94A9BA",
"4X c #9CAEBF",
"5X c #94B3BB",
"6X c #9AB5BC",
"7X c #9CAEC0",
"8X c #9BB0C1",
"9X c #A5ADC0",
"0X c #A3B4C4",
"qX c #A2BDC1",
"wX c #AABBC4",
"eX c #A9BCC9",
"rX c #B6B9CA",
"tX c #B8BDD2",
"yX c #ACC2C5",
"uX c #AAC5C9",
"iX c #B2C0CF",
"pX c #B7C6D2",
"aX c #BEC7D4",
"sX c #B4C8D5",
"dX c #BCC9D6",
"fX c #BAD0DA",
"gX c #C2C5D4",
"hX c #C1CBD7",
"jX c #C1CFD9",
"kX c #C4D1DD",
"lX c #CCD4DE",
"zX c #CBD6E1",
"xX c #D3DAE4",
"cX c #D8DFE7",
"vX c #D1E0E7",
"bX c #DDE5EC",
"nX c #E0E5ED",
"mX c #E2E8EE",
"MX c #E4EAF0",
"NX c #EBEDF3",
"BX c #EDF1F6",
"VX c #F4F6FA",
"CX c #F7F9FB",
"ZX c #FEFDFF",
"AX c None",
/* pixels */
"AXAXAXAXAXAXAXAXAXAXAXAXAXAXAXAXAXAXAXAXAXAXAXAXAXAXAXAXAXAXAXAXAXAXAXAXAXAXAXAXAXAXAXAXAXAXAXAX",
"AXAXAXAXAXAXAXAXAXAXAXAXAXAXAXAXAXAXAXAXAXAXAXAXAXAXAXAXAXAXAXAXAXAXAXAXAXAXAXAXAXAXAXAXAXAXAXAX",
"AXAXAXAXAXAXAXAXAXAXAXAXAXAXAXAXAXAXAXAXAXAXAXAXAXAXAXAXAXAXAXAXAXAXAXAXAXAXAXAXAXAXAXAXAXAXAXAX",
"AXAXAXAXAXAXAXAXAXAXAXAXAXAXAXAXAXAXAXAXAXAXAXAXAXAXAXAXAXAXAXAXAXAXAXAXAXAXAXAXAXAXAXAXAXAXAXAX",
"AXAXAXAXAXAXAXAXAXAXAXAXAXAXAXAXAXAXAXAXAXAXAXAXAXAXAXAXAXAXAXAXAXAXAXAXAXAXAXAXAXAXAXAXAXAXAXAX",
"AXAXAXAXAXAXAXAXAXAXAXAXAXAXAXAXAXAXAXAXAXAXAXAXAXAXAXAXAXAXAXAXAXAXAXAXAXAXAXAXAXAXAXAXAXAXAXAX",
"AXAXAXAXAXAXAXAXAXAXAXAXAXAXAXAXAXAXAXAXy u M M M b q - AXAXAXAXAXAXAXAXAXAXAXAXAXAXAXAXAXAXAXAX",
"AXAXAXAXAXAXAXAXAXAXAXAXAXAXAXAXAXY ^ ' } } r.uXr.} o.' ) l ..AXAXAXAXAXAXAXAXAXAXAXAXAXAXAXAXAX",
"AXAXAXAXAXAXAXAXAXAXAXAXAXAXAX9 | H.u.G.L.o.} 8XO.r.oXK.D.r.] c r AXAXAXAXAXAXAXAXAXAXAXAXAXAXAX",
"AXAXAXAXAXAXAXAXAXAXAXAXAXAX` F.wX/.r.OX6Xi.o.2X/.Y.XX:X6XoXK.r.) v % AXAXAXAXAXAXAXAXAXAXAXAXAX",
"AXAXAXAXAXAXAXAXAXAXAXAXA  .o.o.5X5XK./.L.i.o.o.o.` o.0.i.Y.K.yX{.( / 0 AXAXAXAXAXAXAXAXAXAXAXAX",
"AXAXAXAXAXAXAXAXAXAXAXG  .o.O.o.D.6XD.O.o.O.5.5.| 0.` ] _ _ O./.i.v / / r AXAXAXAXAXAXAXAXAXAXAX",
"AXAXAXAXAXAXAXAXAXAXG %.o.O.O.0.0.0.0.P.8.w.6.5.i. Xn o.{ ] _ _ _ ~ v v / 0 AXAXAXAXAXAXAXAXAXAX",
"AXAXAXAXAXAXAXAXAXAX4.o.O.O.w.t.e.e.8.5X$X8.v.5.+XaX5 n | _ { { _ ( ~ v c / = AXAXAXAXAXAXAXAXAX",
"AXAXAXAXAXAXAXAXAX] o.O.O.0.w.x.v.b.l.;XNXf.<X7.fXxXZ j.h 0.,Xj ^ ( v v c c c AXAXAXAXAXAXAXAXAX",
"AXAXAXAXAXAXAXAXu o.o.O.0.w.G.b.c.Q.^.].ZXrXaX=XBXxX;X`.S bX$X$ p v / / c c / r AXAXAXAXAXAXAXAX",
"AXAXAXAXAXAXAXAX| o.O.O.w.8.P.kX;XE.dX7XBXZXVXVXZXVXVX%XcXVXg 6 5 5 N N v c c / AXAXAXAXAXAXAXAX",
"AXAXAXAXAXAXAXZ | { o.0.w.e.e.<XZXlXzXCXVXZXZXZXZXZXZXCXZX0X`.j.$ ; 2 B N c z ~ r AXAXAXAXAXAXAX",
"AXAXAXAXAXAXAX_ | o.o.6.w.x.B.m.pXZXCXZXZXZXZXNXMXCXZXZXCXNX0X5 E `.V.3 c c z c c AXAXAXAXAXAXAX",
"AXAXAXAXAXAXAX| { | O.0.8.e.J.0X0XBXZXZXZXlX@XC.>.k.9XCXZXCXpXzXZXeXg ; 2 c v c / AXAXAXAXAXAXAX",
"AXAXAXAXAXAX4 | | o.o.r.G.G.B.*XMXCXZXZXtXA.a.>.=.F 7 V.CXZXZXCX`.; : : ; 2 z c c 8 AXAXAXAXAXAX",
"AXAXAXAXAXAXu | { o.5.0. XcXVXNXBXZXZXzXA.S.Z.:.=.L F 6 <XZXZXmX3XV.3 > : ; 2 c c r AXAXAXAXAXAX",
"AXAXAXAXAXAXn | { o.4.5.X.d.1XNXZXZXZX@Xa.Z.Z.>.R L F g T BXZXnXV.; ; > : : ; 2 z l AXAXAXAXAXAX",
"AXAXAXAXAXAXb | ` | | 5.5.8.k.9XCXZXNXC.>.p.>.:.=.&.J D C lXZXBXlXeX`.s.p : : # 2 z AXAXAXAXAXAX",
"AXAXAXAXAXAXb | | { o.o.o.t.`.hXCXZXNX:.=.=.R -.*.&.&.K s lXZXCXNXxX0XV.f > # & ; , AXAXAXAXAXAX",
"AXAXAXAXAXAXb } ` ] { { ] 0.}.xXZXZXCXk.F F R *.&.1.,.s I BXZXZX7Xj @ # ; 1 > : : # AXAXAXAXAXAX",
"AXAXAXAXAXAXu } ` ` ` o.'.vXCXCXNXZXZX9X7 F T D &.,.3.Y %XZXZXwX(.m.> : : ; > : : o AXAXAXAXAXAX",
"AXAXAXAXAXAX- } _ ` ` o.s.! E #.kXZXZXCXT.6 C D K s T _.BXZXZXmXz.+ : : : : : > # o AXAXAXAXAXAX",
"AXAXAXAXAXAXAX' _ _ ` ] V 5 g ;X0XNXZXZXCX<XT C s I %XBXZXZXmXBXZX$X& : : : ; > : AXAXAXAXAXAXAX",
"AXAXAXAXAXAXAX^ _ _ _ ` ` ` A 6 $XZXZXVXZXZXBXlXlXBXZXZXCXlXzX@.m.6XV.& : # : > : AXAXAXAXAXAXAX",
"AXAXAXAXAXAXAX9 ' _ _ _ ` ] x B.ZXjX}.CXCXZXZXZXZXZXZXZXZX}.2.B.& # 1 : # & : 1 + AXAXAXAXAXAXAX",
"AXAXAXAXAXAXAXAX( ( _ _ _ _ 0.pXW.> $X7XNXZXmXZXZXNXbXjXBXnX, < t : : : ; ; : 1 AXAXAXAXAXAXAXAX",
"AXAXAXAXAXAXAXAXa ( B ( _ ( $.C * p s.E ZXeX%XdXVXzXm.;X#.VXT.% : : : & ; ; : * AXAXAXAXAXAXAXAX",
"AXAXAXAXAXAXAXAXAX/ N N B ( ( d 3 3 @ V.BXZ V.Q dXzX# 2.& 2.2X: ; : : ; ; : 1 AXAXAXAXAXAXAXAXAX",
"AXAXAXAXAXAXAXAXAX% / B c v v / d : # }.W.# A ; `.rX@ ; : # j 3 # ; # : # : O AXAXAXAXAXAXAXAXAX",
"AXAXAXAXAXAXAXAXAXAX0 / ~ v z U.H.w ; 7.1 : 3 : G }.# : : : # # : ; & # : $ AXAXAXAXAXAXAXAXAXAX",
"AXAXAXAXAXAXAXAXAXAXAXr / c | qXO.~ U & : : > < 1 j & : ; @ E C ).g.# : & AXAXAXAXAXAXAXAXAXAXAX",
"AXAXAXAXAXAXAXAXAXAXAXAX0 c OX.Xl H.K.(.: @ # # ; ; : # 1 M.3.~.~.R.: $ AXAXAXAXAXAXAXAXAXAXAXAX",
"AXAXAXAXAXAXAXAXAXAXAXAXAX= c 0.U.>XK.:XT.E 2.H 2.~.;.M.^.&X2.$XS : O AXAXAXAXAXAXAXAXAXAXAXAXAX",
"AXAXAXAXAXAXAXAXAXAXAXAXAXAXAX%./ O.F./.:XwX!.^.R.W.n.#X-X3.+.1 g AXAXAXAXAXAXAXAXAXAXAXAXAXAXAX",
"AXAXAXAXAXAXAXAXAXAXAXAXAXAXAXAXAX8 z ) / q.$.+.+.i @.g 1 #   AXAXAXAXAXAXAXAXAXAXAXAXAXAXAXAXAX",
"AXAXAXAXAXAXAXAXAXAXAXAXAXAXAXAXAXAXAXAX8 r r w + @ . X AXAXAXAXAXAXAXAXAXAXAXAXAXAXAXAXAXAXAXAX",
"AXAXAXAXAXAXAXAXAXAXAXAXAXAXAXAXAXAXAXAXAXAXAXAXAXAXAXAXAXAXAXAXAXAXAXAXAXAXAXAXAXAXAXAXAXAXAXAX",
"AXAXAXAXAXAXAXAXAXAXAXAXAXAXAXAXAXAXAXAXAXAXAXAXAXAXAXAXAXAXAXAXAXAXAXAXAXAXAXAXAXAXAXAXAXAXAXAX",
"AXAXAXAXAXAXAXAXAXAXAXAXAXAXAXAXAXAXAXAXAXAXAXAXAXAXAXAXAXAXAXAXAXAXAXAXAXAXAXAXAXAXAXAXAXAXAXAX",
"AXAXAXAXAXAXAXAXAXAXAXAXAXAXAXAXAXAXAXAXAXAXAXAXAXAXAXAXAXAXAXAXAXAXAXAXAXAXAXAXAXAXAXAXAXAXAXAX",
"AXAXAXAXAXAXAXAXAXAXAXAXAXAXAXAXAXAXAXAXAXAXAXAXAXAXAXAXAXAXAXAXAXAXAXAXAXAXAXAXAXAXAXAXAXAXAXAX",
"AXAXAXAXAXAXAXAXAXAXAXAXAXAXAXAXAXAXAXAXAXAXAXAXAXAXAXAXAXAXAXAXAXAXAXAXAXAXAXAXAXAXAXAXAXAXAXAX"
};
